<svg width="338" height="98" viewBox="0 0 338 98" fill="none" xmlns="http://www.w3.org/2000/svg">
<circle cx="48.702" cy="48.702" r="48.702" fill="#1D764A"/>
<path d="M49.0478 68.2883C48.7648 68.0053 48.6778 67.5808 48.8266 67.2093L60.4768 38.1293C60.8124 37.2918 61.9979 37.2918 62.3334 38.1293L73.9837 67.2093C74.1325 67.5808 74.0455 68.0053 73.7625 68.2883L62.1123 79.9385C61.7217 80.3291 61.0886 80.3291 60.698 79.9385L49.0478 68.2883Z" stroke="white" stroke-width="2"/>
<path d="M23.5191 63.2014C23.2361 62.9184 23.1491 62.4939 23.2979 62.1224L39.9967 20.4405C40.3322 19.603 41.5178 19.603 41.8533 20.4405L58.5522 62.1224C58.7011 62.4939 58.614 62.9184 58.331 63.2014L41.6322 79.9003C41.2416 80.2908 40.6085 80.2908 40.2179 79.9003L23.5191 63.2014Z" fill="#1D764A" stroke="white" stroke-width="2"/>
<path d="M120.72 70.32C118.773 70.32 117.12 70.2133 115.76 70C114.4 69.76 113.28 69.3467 112.4 68.76C111.547 68.1733 110.867 67.36 110.36 66.32C109.88 65.2533 109.533 63.9067 109.32 62.28C109.133 60.6267 109.04 58.6133 109.04 56.24C109.04 53.8667 109.133 51.8667 109.32 50.24C109.533 48.5867 109.893 47.24 110.4 46.2C110.907 45.1333 111.6 44.3067 112.48 43.72C113.36 43.1333 114.467 42.7333 115.8 42.52C117.16 42.28 118.8 42.16 120.72 42.16C121.627 42.16 122.6 42.2 123.64 42.28C124.68 42.36 125.693 42.4533 126.68 42.56C127.693 42.6667 128.6 42.8 129.4 42.96V45.76C128.547 45.6267 127.68 45.52 126.8 45.44C125.92 45.3333 125.093 45.2533 124.32 45.2C123.573 45.1467 122.933 45.12 122.4 45.12C120.747 45.12 119.333 45.16 118.16 45.24C117.013 45.32 116.067 45.5333 115.32 45.88C114.573 46.2267 114 46.8 113.6 47.6C113.2 48.3733 112.907 49.4533 112.72 50.84C112.56 52.2267 112.48 54.0267 112.48 56.24C112.48 58.1867 112.533 59.8267 112.64 61.16C112.747 62.4667 112.96 63.5333 113.28 64.36C113.627 65.1867 114.093 65.8267 114.68 66.28C115.293 66.7333 116.093 67.04 117.08 67.2C118.093 67.3333 119.333 67.4 120.8 67.4C121.36 67.4 121.973 67.3867 122.64 67.36C123.307 67.3333 123.96 67.2933 124.6 67.24C125.24 67.1867 125.773 67.1333 126.2 67.08V58.12H119.96V55.2H129.52V69.52C128.64 69.68 127.667 69.8267 126.6 69.96C125.56 70.0667 124.52 70.1467 123.48 70.2C122.467 70.28 121.547 70.32 120.72 70.32ZM136.471 70V49.6H139.391L139.551 53.52H139.791C140.138 52.3733 140.631 51.4933 141.271 50.88C141.911 50.2667 142.685 49.8533 143.591 49.64C144.498 49.4 145.498 49.28 146.591 49.28V52.48C144.751 52.48 143.338 52.7733 142.351 53.36C141.365 53.9467 140.685 54.8533 140.311 56.08C139.938 57.3067 139.751 58.8533 139.751 60.72V70H136.471ZM159.283 70.32C157.63 70.32 156.243 70.2133 155.123 70C154.03 69.7867 153.15 69.44 152.483 68.96C151.817 68.4533 151.31 67.8 150.963 67C150.617 66.1733 150.39 65.1733 150.283 64C150.177 62.8267 150.123 61.44 150.123 59.84C150.123 57.9467 150.203 56.3333 150.363 55C150.523 53.64 150.883 52.5467 151.443 51.72C152.03 50.8667 152.937 50.2533 154.163 49.88C155.39 49.48 157.043 49.28 159.123 49.28C160.697 49.28 161.977 49.4 162.963 49.64C163.977 49.88 164.777 50.2533 165.363 50.76C165.95 51.2667 166.377 51.9467 166.643 52.8C166.937 53.6267 167.123 54.6267 167.203 55.8C167.283 56.9467 167.323 58.28 167.323 59.8V60.88H153.363C153.363 62.2667 153.43 63.4 153.563 64.28C153.697 65.16 153.963 65.84 154.363 66.32C154.79 66.8 155.443 67.1333 156.323 67.32C157.23 67.5067 158.457 67.6 160.003 67.6C160.643 67.6 161.35 67.5867 162.123 67.56C162.897 67.5067 163.67 67.44 164.443 67.36C165.217 67.28 165.91 67.2 166.523 67.12V69.76C165.963 69.8667 165.27 69.96 164.443 70.04C163.643 70.12 162.79 70.1867 161.883 70.24C161.003 70.2933 160.137 70.32 159.283 70.32ZM164.163 59.24V58.16C164.163 56.7733 164.083 55.68 163.923 54.88C163.763 54.0533 163.483 53.44 163.083 53.04C162.71 52.6133 162.19 52.3333 161.523 52.2C160.857 52.0667 160.03 52 159.043 52C157.763 52 156.75 52.0933 156.003 52.28C155.257 52.44 154.697 52.7467 154.323 53.2C153.95 53.6533 153.697 54.3067 153.563 55.16C153.43 56.0133 153.363 57.1467 153.363 58.56H164.923L164.163 59.24ZM181.627 70.32C179.974 70.32 178.587 70.2133 177.467 70C176.374 69.7867 175.494 69.44 174.827 68.96C174.161 68.4533 173.654 67.8 173.307 67C172.961 66.1733 172.734 65.1733 172.627 64C172.521 62.8267 172.467 61.44 172.467 59.84C172.467 57.9467 172.547 56.3333 172.707 55C172.867 53.64 173.227 52.5467 173.787 51.72C174.374 50.8667 175.281 50.2533 176.507 49.88C177.734 49.48 179.387 49.28 181.467 49.28C183.041 49.28 184.321 49.4 185.307 49.64C186.321 49.88 187.121 50.2533 187.707 50.76C188.294 51.2667 188.721 51.9467 188.987 52.8C189.281 53.6267 189.467 54.6267 189.547 55.8C189.627 56.9467 189.667 58.28 189.667 59.8V60.88H175.707C175.707 62.2667 175.774 63.4 175.907 64.28C176.041 65.16 176.307 65.84 176.707 66.32C177.134 66.8 177.787 67.1333 178.667 67.32C179.574 67.5067 180.801 67.6 182.347 67.6C182.987 67.6 183.694 67.5867 184.467 67.56C185.241 67.5067 186.014 67.44 186.787 67.36C187.561 67.28 188.254 67.2 188.867 67.12V69.76C188.307 69.8667 187.614 69.96 186.787 70.04C185.987 70.12 185.134 70.1867 184.227 70.24C183.347 70.2933 182.481 70.32 181.627 70.32ZM186.507 59.24V58.16C186.507 56.7733 186.427 55.68 186.267 54.88C186.107 54.0533 185.827 53.44 185.427 53.04C185.054 52.6133 184.534 52.3333 183.867 52.2C183.201 52.0667 182.374 52 181.387 52C180.107 52 179.094 52.0933 178.347 52.28C177.601 52.44 177.041 52.7467 176.667 53.2C176.294 53.6533 176.041 54.3067 175.907 55.16C175.774 56.0133 175.707 57.1467 175.707 58.56H187.267L186.507 59.24ZM195.651 70V49.6H198.611L198.731 52.52H198.971C199.264 51.88 199.664 51.32 200.171 50.84C200.704 50.36 201.411 49.9867 202.291 49.72C203.198 49.4267 204.344 49.28 205.731 49.28C207.251 49.28 208.464 49.44 209.371 49.76C210.278 50.08 210.971 50.56 211.451 51.2C211.958 51.84 212.291 52.6667 212.451 53.68C212.611 54.6667 212.691 55.8533 212.691 57.24V70H209.451V58.36C209.451 56.9733 209.384 55.88 209.251 55.08C209.144 54.2533 208.918 53.64 208.571 53.24C208.224 52.8133 207.718 52.5333 207.051 52.4C206.384 52.2667 205.504 52.2 204.411 52.2C203.104 52.2 202.078 52.3733 201.331 52.72C200.584 53.04 200.038 53.52 199.691 54.16C199.344 54.7733 199.131 55.5333 199.051 56.44C198.971 57.32 198.931 58.3333 198.931 59.48V70H195.651Z" fill="#1D764A"/>
<path d="M220.156 70V42.48H237.236V45.44H223.596V55.24H235.756V58.2H223.596V70H220.156ZM249.173 70.32C247.68 70.32 246.467 70.16 245.533 69.84C244.627 69.52 243.933 69.04 243.453 68.4C242.973 67.76 242.64 66.9467 242.453 65.96C242.293 64.9467 242.213 63.7467 242.213 62.36V49.6H245.493V61.24C245.493 62.6 245.547 63.6933 245.653 64.52C245.76 65.3467 245.987 65.9733 246.333 66.4C246.707 66.8 247.227 67.0667 247.893 67.2C248.56 67.3333 249.427 67.4 250.493 67.4C251.827 67.4 252.867 67.24 253.613 66.92C254.36 66.5733 254.893 66.0933 255.213 65.48C255.56 64.84 255.773 64.08 255.853 63.2C255.96 62.2933 256.013 61.2667 256.013 60.12V49.6H259.253V70H256.333L256.213 67.08H255.933C255.667 67.72 255.267 68.28 254.733 68.76C254.227 69.24 253.52 69.6267 252.613 69.92C251.707 70.1867 250.56 70.32 249.173 70.32ZM267.879 70V52.36H263.759V49.6H267.879V43.68H271.119V49.6H275.999V52.36H271.119V70H267.879ZM287.455 70.32C285.961 70.32 284.748 70.16 283.815 69.84C282.908 69.52 282.215 69.04 281.735 68.4C281.255 67.76 280.921 66.9467 280.735 65.96C280.575 64.9467 280.495 63.7467 280.495 62.36V49.6H283.775V61.24C283.775 62.6 283.828 63.6933 283.935 64.52C284.041 65.3467 284.268 65.9733 284.615 66.4C284.988 66.8 285.508 67.0667 286.175 67.2C286.841 67.3333 287.708 67.4 288.775 67.4C290.108 67.4 291.148 67.24 291.895 66.92C292.641 66.5733 293.175 66.0933 293.495 65.48C293.841 64.84 294.055 64.08 294.135 63.2C294.241 62.2933 294.295 61.2667 294.295 60.12V49.6H297.535V70H294.615L294.495 67.08H294.215C293.948 67.72 293.548 68.28 293.015 68.76C292.508 69.24 291.801 69.6267 290.895 69.92C289.988 70.1867 288.841 70.32 287.455 70.32ZM304.44 70V49.6H307.36L307.52 53.52H307.76C308.107 52.3733 308.6 51.4933 309.24 50.88C309.88 50.2667 310.653 49.8533 311.56 49.64C312.467 49.4 313.467 49.28 314.56 49.28V52.48C312.72 52.48 311.307 52.7733 310.32 53.36C309.333 53.9467 308.653 54.8533 308.28 56.08C307.907 57.3067 307.72 58.8533 307.72 60.72V70H304.44ZM327.252 70.32C325.599 70.32 324.212 70.2133 323.092 70C321.999 69.7867 321.119 69.44 320.452 68.96C319.786 68.4533 319.279 67.8 318.932 67C318.586 66.1733 318.359 65.1733 318.252 64C318.146 62.8267 318.092 61.44 318.092 59.84C318.092 57.9467 318.172 56.3333 318.332 55C318.492 53.64 318.852 52.5467 319.412 51.72C319.999 50.8667 320.906 50.2533 322.132 49.88C323.359 49.48 325.012 49.28 327.092 49.28C328.666 49.28 329.946 49.4 330.932 49.64C331.946 49.88 332.746 50.2533 333.332 50.76C333.919 51.2667 334.346 51.9467 334.612 52.8C334.906 53.6267 335.092 54.6267 335.172 55.8C335.252 56.9467 335.292 58.28 335.292 59.8V60.88H321.332C321.332 62.2667 321.399 63.4 321.532 64.28C321.666 65.16 321.932 65.84 322.332 66.32C322.759 66.8 323.412 67.1333 324.292 67.32C325.199 67.5067 326.426 67.6 327.972 67.6C328.612 67.6 329.319 67.5867 330.092 67.56C330.866 67.5067 331.639 67.44 332.412 67.36C333.186 67.28 333.879 67.2 334.492 67.12V69.76C333.932 69.8667 333.239 69.96 332.412 70.04C331.612 70.12 330.759 70.1867 329.852 70.24C328.972 70.2933 328.106 70.32 327.252 70.32ZM332.132 59.24V58.16C332.132 56.7733 332.052 55.68 331.892 54.88C331.732 54.0533 331.452 53.44 331.052 53.04C330.679 52.6133 330.159 52.3333 329.492 52.2C328.826 52.0667 327.999 52 327.012 52C325.732 52 324.719 52.0933 323.972 52.28C323.226 52.44 322.666 52.7467 322.292 53.2C321.919 53.6533 321.666 54.3067 321.532 55.16C321.399 56.0133 321.332 57.1467 321.332 58.56H332.892L332.132 59.24Z" fill="black"/>
</svg>
