<svg width="395" height="98" viewBox="0 0 395 98" fill="none" xmlns="http://www.w3.org/2000/svg">
<circle cx="48.702" cy="48.702" r="48.702" fill="#1D764A"/>
<path d="M49.0478 68.2883C48.7648 68.0053 48.6778 67.5808 48.8266 67.2093L60.4768 38.1293C60.8124 37.2918 61.9979 37.2918 62.3334 38.1293L73.9837 67.2093C74.1325 67.5808 74.0455 68.0053 73.7625 68.2883L62.1123 79.9385C61.7217 80.3291 61.0886 80.3291 60.698 79.9385L49.0478 68.2883Z" stroke="white" stroke-width="2"/>
<path d="M23.5191 63.2014C23.2361 62.9184 23.1491 62.4939 23.2979 62.1224L39.9967 20.4405C40.3322 19.603 41.5178 19.603 41.8533 20.4405L58.5522 62.1224C58.7011 62.4939 58.614 62.9184 58.331 63.2014L41.6322 79.9003C41.2416 80.2908 40.6085 80.2908 40.2179 79.9003L23.5191 63.2014Z" fill="#1D764A" stroke="white" stroke-width="2"/>
<path d="M123.4 67.4C120.967 67.4 118.9 67.2667 117.2 67C115.5 66.7 114.1 66.1833 113 65.45C111.933 64.7167 111.083 63.7 110.45 62.4C109.85 61.0667 109.417 59.3833 109.15 57.35C108.917 55.2833 108.8 52.7667 108.8 49.8C108.8 46.8333 108.917 44.3333 109.15 42.3C109.417 40.2333 109.867 38.55 110.5 37.25C111.133 35.9167 112 34.8833 113.1 34.15C114.2 33.4167 115.583 32.9167 117.25 32.65C118.95 32.35 121 32.2 123.4 32.2C124.533 32.2 125.75 32.25 127.05 32.35C128.35 32.45 129.617 32.5667 130.85 32.7C132.117 32.8333 133.25 33 134.25 33.2V36.7C133.183 36.5333 132.1 36.4 131 36.3C129.9 36.1667 128.867 36.0667 127.9 36C126.967 35.9333 126.167 35.9 125.5 35.9C123.433 35.9 121.667 35.95 120.2 36.05C118.767 36.15 117.583 36.4167 116.65 36.85C115.717 37.2833 115 38 114.5 39C114 39.9667 113.633 41.3167 113.4 43.05C113.2 44.7833 113.1 47.0333 113.1 49.8C113.1 52.2333 113.167 54.2833 113.3 55.95C113.433 57.5833 113.7 58.9167 114.1 59.95C114.533 60.9833 115.117 61.7833 115.85 62.35C116.617 62.9167 117.617 63.3 118.85 63.5C120.117 63.6667 121.667 63.75 123.5 63.75C124.2 63.75 124.967 63.7333 125.8 63.7C126.633 63.6667 127.45 63.6167 128.25 63.55C129.05 63.4833 129.717 63.4167 130.25 63.35V52.15H122.45V48.5H134.4V66.4C133.3 66.6 132.083 66.7833 130.75 66.95C129.45 67.0833 128.15 67.1833 126.85 67.25C125.583 67.35 124.433 67.4 123.4 67.4ZM143.089 67V41.5H146.739L146.939 46.4H147.239C147.672 44.9667 148.289 43.8667 149.089 43.1C149.889 42.3333 150.856 41.8167 151.989 41.55C153.122 41.25 154.372 41.1 155.739 41.1V45.1C153.439 45.1 151.672 45.4667 150.439 46.2C149.206 46.9333 148.356 48.0667 147.889 49.6C147.422 51.1333 147.189 53.0667 147.189 55.4V67H143.089ZM171.604 67.4C169.538 67.4 167.804 67.2667 166.404 67C165.038 66.7333 163.938 66.3 163.104 65.7C162.271 65.0667 161.638 64.25 161.204 63.25C160.771 62.2167 160.488 60.9667 160.354 59.5C160.221 58.0333 160.154 56.3 160.154 54.3C160.154 51.9333 160.254 49.9167 160.454 48.25C160.654 46.55 161.104 45.1833 161.804 44.15C162.538 43.0833 163.671 42.3167 165.204 41.85C166.738 41.35 168.804 41.1 171.404 41.1C173.371 41.1 174.971 41.25 176.204 41.55C177.471 41.85 178.471 42.3167 179.204 42.95C179.938 43.5833 180.471 44.4333 180.804 45.5C181.171 46.5333 181.404 47.7833 181.504 49.25C181.604 50.6833 181.654 52.35 181.654 54.25V55.6H164.204C164.204 57.3333 164.288 58.75 164.454 59.85C164.621 60.95 164.954 61.8 165.454 62.4C165.988 63 166.804 63.4167 167.904 63.65C169.038 63.8833 170.571 64 172.504 64C173.304 64 174.188 63.9833 175.154 63.95C176.121 63.8833 177.088 63.8 178.054 63.7C179.021 63.6 179.888 63.5 180.654 63.4V66.7C179.954 66.8333 179.088 66.95 178.054 67.05C177.054 67.15 175.988 67.2333 174.854 67.3C173.754 67.3667 172.671 67.4 171.604 67.4ZM177.704 53.55V52.2C177.704 50.4667 177.604 49.1 177.404 48.1C177.204 47.0667 176.854 46.3 176.354 45.8C175.888 45.2667 175.238 44.9167 174.404 44.75C173.571 44.5833 172.538 44.5 171.304 44.5C169.704 44.5 168.438 44.6167 167.504 44.85C166.571 45.05 165.871 45.4333 165.404 46C164.938 46.5667 164.621 47.3833 164.454 48.45C164.288 49.5167 164.204 50.9333 164.204 52.7H178.654L177.704 53.55ZM199.534 67.4C197.467 67.4 195.734 67.2667 194.334 67C192.967 66.7333 191.867 66.3 191.034 65.7C190.201 65.0667 189.567 64.25 189.134 63.25C188.701 62.2167 188.417 60.9667 188.284 59.5C188.151 58.0333 188.084 56.3 188.084 54.3C188.084 51.9333 188.184 49.9167 188.384 48.25C188.584 46.55 189.034 45.1833 189.734 44.15C190.467 43.0833 191.601 42.3167 193.134 41.85C194.667 41.35 196.734 41.1 199.334 41.1C201.301 41.1 202.901 41.25 204.134 41.55C205.401 41.85 206.401 42.3167 207.134 42.95C207.867 43.5833 208.401 44.4333 208.734 45.5C209.101 46.5333 209.334 47.7833 209.434 49.25C209.534 50.6833 209.584 52.35 209.584 54.25V55.6H192.134C192.134 57.3333 192.217 58.75 192.384 59.85C192.551 60.95 192.884 61.8 193.384 62.4C193.917 63 194.734 63.4167 195.834 63.65C196.967 63.8833 198.501 64 200.434 64C201.234 64 202.117 63.9833 203.084 63.95C204.051 63.8833 205.017 63.8 205.984 63.7C206.951 63.6 207.817 63.5 208.584 63.4V66.7C207.884 66.8333 207.017 66.95 205.984 67.05C204.984 67.15 203.917 67.2333 202.784 67.3C201.684 67.3667 200.601 67.4 199.534 67.4ZM205.634 53.55V52.2C205.634 50.4667 205.534 49.1 205.334 48.1C205.134 47.0667 204.784 46.3 204.284 45.8C203.817 45.2667 203.167 44.9167 202.334 44.75C201.501 44.5833 200.467 44.5 199.234 44.5C197.634 44.5 196.367 44.6167 195.434 44.85C194.501 45.05 193.801 45.4333 193.334 46C192.867 46.5667 192.551 47.3833 192.384 48.45C192.217 49.5167 192.134 50.9333 192.134 52.7H206.584L205.634 53.55ZM217.064 67V41.5H220.764L220.914 45.15H221.214C221.58 44.35 222.08 43.65 222.714 43.05C223.38 42.45 224.264 41.9833 225.364 41.65C226.497 41.2833 227.93 41.1 229.664 41.1C231.564 41.1 233.08 41.3 234.214 41.7C235.347 42.1 236.214 42.7 236.814 43.5C237.447 44.3 237.864 45.3333 238.064 46.6C238.264 47.8333 238.364 49.3167 238.364 51.05V67H234.314V52.45C234.314 50.7167 234.23 49.35 234.064 48.35C233.93 47.3167 233.647 46.55 233.214 46.05C232.78 45.5167 232.147 45.1667 231.314 45C230.48 44.8333 229.38 44.75 228.014 44.75C226.38 44.75 225.097 44.9667 224.164 45.4C223.23 45.8 222.547 46.4 222.114 47.2C221.68 47.9667 221.414 48.9167 221.314 50.05C221.214 51.15 221.164 52.4167 221.164 53.85V67H217.064Z" fill="#155E3A"/>
<path d="M247.695 67V32.6H269.045V36.3H251.995V48.55H267.195V52.25H251.995V67H247.695ZM283.967 67.4C282.1 67.4 280.583 67.2 279.417 66.8C278.283 66.4 277.417 65.8 276.817 65C276.217 64.2 275.8 63.1833 275.567 61.95C275.367 60.6833 275.267 59.1833 275.267 57.45V41.5H279.367V56.05C279.367 57.75 279.433 59.1167 279.567 60.15C279.7 61.1833 279.983 61.9667 280.417 62.5C280.883 63 281.533 63.3333 282.367 63.5C283.2 63.6667 284.283 63.75 285.617 63.75C287.283 63.75 288.583 63.55 289.517 63.15C290.45 62.7167 291.117 62.1167 291.517 61.35C291.95 60.55 292.217 59.6 292.317 58.5C292.45 57.3667 292.517 56.0833 292.517 54.65V41.5H296.567V67H292.917L292.767 63.35H292.417C292.083 64.15 291.583 64.85 290.917 65.45C290.283 66.05 289.4 66.5333 288.267 66.9C287.133 67.2333 285.7 67.4 283.967 67.4ZM307.348 67V44.95H302.198V41.5H307.348V34.1H311.398V41.5H317.498V44.95H311.398V67H307.348ZM331.818 67.4C329.952 67.4 328.435 67.2 327.268 66.8C326.135 66.4 325.268 65.8 324.668 65C324.068 64.2 323.652 63.1833 323.418 61.95C323.218 60.6833 323.118 59.1833 323.118 57.45V41.5H327.218V56.05C327.218 57.75 327.285 59.1167 327.418 60.15C327.552 61.1833 327.835 61.9667 328.268 62.5C328.735 63 329.385 63.3333 330.218 63.5C331.052 63.6667 332.135 63.75 333.468 63.75C335.135 63.75 336.435 63.55 337.368 63.15C338.302 62.7167 338.968 62.1167 339.368 61.35C339.802 60.55 340.068 59.6 340.168 58.5C340.302 57.3667 340.368 56.0833 340.368 54.65V41.5H344.418V67H340.768L340.618 63.35H340.268C339.935 64.15 339.435 64.85 338.768 65.45C338.135 66.05 337.252 66.5333 336.118 66.9C334.985 67.2333 333.552 67.4 331.818 67.4ZM353.05 67V41.5H356.7L356.9 46.4H357.2C357.633 44.9667 358.25 43.8667 359.05 43.1C359.85 42.3333 360.817 41.8167 361.95 41.55C363.083 41.25 364.333 41.1 365.7 41.1V45.1C363.4 45.1 361.633 45.4667 360.4 46.2C359.167 46.9333 358.317 48.0667 357.85 49.6C357.383 51.1333 357.15 53.0667 357.15 55.4V67H353.05ZM381.565 67.4C379.499 67.4 377.765 67.2667 376.365 67C374.999 66.7333 373.899 66.3 373.065 65.7C372.232 65.0667 371.599 64.25 371.165 63.25C370.732 62.2167 370.449 60.9667 370.315 59.5C370.182 58.0333 370.115 56.3 370.115 54.3C370.115 51.9333 370.215 49.9167 370.415 48.25C370.615 46.55 371.065 45.1833 371.765 44.15C372.499 43.0833 373.632 42.3167 375.165 41.85C376.699 41.35 378.765 41.1 381.365 41.1C383.332 41.1 384.932 41.25 386.165 41.55C387.432 41.85 388.432 42.3167 389.165 42.95C389.899 43.5833 390.432 44.4333 390.765 45.5C391.132 46.5333 391.365 47.7833 391.465 49.25C391.565 50.6833 391.615 52.35 391.615 54.25V55.6H374.165C374.165 57.3333 374.249 58.75 374.415 59.85C374.582 60.95 374.915 61.8 375.415 62.4C375.949 63 376.765 63.4167 377.865 63.65C378.999 63.8833 380.532 64 382.465 64C383.265 64 384.149 63.9833 385.115 63.95C386.082 63.8833 387.049 63.8 388.015 63.7C388.982 63.6 389.849 63.5 390.615 63.4V66.7C389.915 66.8333 389.049 66.95 388.015 67.05C387.015 67.15 385.949 67.2333 384.815 67.3C383.715 67.3667 382.632 67.4 381.565 67.4ZM387.665 53.55V52.2C387.665 50.4667 387.565 49.1 387.365 48.1C387.165 47.0667 386.815 46.3 386.315 45.8C385.849 45.2667 385.199 44.9167 384.365 44.75C383.532 44.5833 382.499 44.5 381.265 44.5C379.665 44.5 378.399 44.6167 377.465 44.85C376.532 45.05 375.832 45.4333 375.365 46C374.899 46.5667 374.582 47.3833 374.415 48.45C374.249 49.5167 374.165 50.9333 374.165 52.7H388.615L387.665 53.55Z" fill="black"/>
</svg>
